<svg id="Layer_1" data-name="Layer 1" xmlns="http://www.w3.org/2000/svg" viewBox="0 0 908.96 129"><defs><style>.cls-1{fill:#fefefe;}.cls-2{fill:#010101;}.cls-3{fill:#030303;}.cls-4{fill:#020202;}.cls-5{fill:#fdfdfd;}.cls-6{fill:#f8f8f8;}.cls-7{fill:#fbfbfb;}.cls-8{fill:#fafafa;}.cls-9{fill:#f9fbfd;}.cls-10{fill:#f6f9fc;}.cls-11{fill:#fafbfd;}.cls-12{fill:#f8fafc;}.cls-13{fill:#0276ba;}.cls-14{fill:#44bbfd;}.cls-15{fill:#0176b9;}.cls-16{fill:#0076b9;}.cls-17{fill:#0277ba;}.cls-18{fill:#0478ba;}</style></defs><title>nelium_borde blanco_crop</title><path class="cls-1" d="M410,0h90V129h-1V80h-5.41q-37.93,0-75.87,0c-6,0-7.71-1.76-7.71-7.61Q410,36.19,410,0Z"/><path class="cls-1" d="M118,129H53V54.29h65Z"/><path class="cls-1" d="M620,0h57q0,36,0,72c0,5.81-1.23,7-7,7q-21.24,0-42.49,0C621,79,620,77.93,620,71.48Q620,35.74,620,0Z"/><path class="cls-2" d="M850,129H793V54l-4,.36V129H735V0H879c5.72,2.5,11.85,4.36,17.08,7.65,7.62,4.8,10.6,13,12.92,21.35V129H854q0-33.93,0-67.86c0-2.77-.1-5.27-4-6Zm-110.89-4.29h46.1V51.39h11.89V124.8h49.06V51.08C856.91,50.94,858,52,858,61.9q0,22,0,44v18.86h46v-5.14c0-29-.27-58,.18-87,.12-8-2.89-13.77-8.28-18.86A35,35,0,0,0,870.92,4Q807.19,4,743.45,4c-1.44,0-2.87.14-4.38.22Z"/><path class="cls-2" d="M118,129V54.29H53V129H0V0H146c.17.26.31.73.5.75,15.3,1.57,27.06,17.52,26.7,33.92-.71,31.43-.2,62.89-.2,94.33ZM48.82,50.14c22.37,0,44.16-.09,65.95.07,4.45,0,7.18,3.59,7.18,8.29q0,30.5,0,61v5.22h47c0-30.77-.47-61.26.23-91.72.28-12.16-14.55-29.08-29.53-29C96,4.08,52.34,4,8.68,4H4.17v120.8H48.82Z"/><path class="cls-3" d="M620,0q0,35.74,0,71.48c0,6.45,1,7.5,7.51,7.51q21.24,0,42.49,0c5.75,0,7-1.2,7-7q0-36,0-72h56q0,46.16,0,92.3c0,13.26-5.45,23.83-16.4,31.32-3.24,2.22-7,3.61-10.59,5.38H585c-19.81-7.64-27.46-22.56-27.12-43.19.47-28.6.12-57.21.12-85.81Zm61,4.12V73.5c0,6.47-2.76,9.42-9.33,9.46q-23.5.14-47,0c-5.78,0-8.71-3.23-8.71-9.06l0-65V4.33H562c0,27.31-.11,54.3.09,81.29a83.32,83.32,0,0,0,2,16.71c2.42,11.2,16.65,22.77,27.55,22.76q54,0,108-.1C713.77,125,729,109.74,729,95.53q0-43.5,0-87c0-1.44-.14-2.88-.22-4.42Z"/><path class="cls-2" d="M202,0H349V52.18H318.25v27H349V129H175q0-48.85,0-97.7c0-8.16,3.35-15,8.78-21.06C188.74,4.71,195.4,2.52,202,0Zm112.3,83V47.81h30.4V4H332.42q-60.5,0-121,0c-17.1,0-32.91,16.28-32.61,32.5.52,27.65.15,55.33.15,83v5.25H344.68V83Z"/><path class="cls-4" d="M410,0q0,36.2,0,72.38c0,5.85,1.75,7.61,7.71,7.61q37.94,0,75.87,0H499v49H378a59,59,0,0,0-5.48-2.81C358.12,120.62,351,110.59,351,95.41Q350.91,47.7,351,0ZM355,4.13c0,30.1-.13,59.73.14,89.36a28.46,28.46,0,0,0,3.26,12.79C365.12,118.75,376,125,390.23,125q51,.09,101.92,0c1.26,0,2.51-.2,3.46-.27V84H414.82c-7.23,0-8.86-1.56-8.86-8.62V4.13Z"/><path d="M500,129V0h56V129Zm51.72-4.11V4.29H504.24v120.6Z"/><path class="cls-5" d="M351,0q0,47.7,0,95.41c0,15.18,7.15,25.21,21.51,30.78A59,59,0,0,1,378,129H349V79.21H318.25v-27H349V0Z"/><path class="cls-6" d="M202,0c-6.56,2.52-13.22,4.71-18.18,10.24C178.35,16.3,175,23.14,175,31.3q-.1,48.84,0,97.7h-2c0-31.44-.51-62.9.2-94.33.36-16.4-11.4-32.35-26.7-33.92-.19,0-.33-.49-.5-.75Z"/><path class="cls-7" d="M556,129V0h2c0,28.6.35,57.21-.12,85.81-.34,20.63,7.31,35.55,27.12,43.19Z"/><path class="cls-8" d="M706,129c3.55-1.77,7.35-3.16,10.59-5.38,11-7.49,16.38-18.06,16.4-31.32q0-46.15,0-92.3h2V129Z"/><path class="cls-1" d="M789,129V54.36l4-.36v75Z"/><path class="cls-5" d="M850,129V55.1c3.92.77,4,3.27,4,6q-.06,33.93,0,67.86Z"/><path class="cls-6" d="M909,29c-2.32-8.33-5.3-16.55-12.92-21.35C890.81,4.36,884.68,2.5,879,0h30Z"/><path class="cls-9" d="M739.07,124.71V4.23C740.58,4.15,742,4,743.45,4q63.74,0,127.47,0a35,35,0,0,1,24.94,9.78c5.39,5.09,8.4,10.84,8.28,18.86-.45,29-.18,58-.18,87v5.14H858V105.89q0-22,0-44c0-9.94-1.06-11-11.85-10.82V124.8H797.06V51.39H785.17v73.32Zm39.56-81.63c26.12,0,51.42-.1,76.71.06,6.53,0,10.54,4.68,10.55,11.19q0,30,.07,60v4.51h33.12v-4.64c0-25.65-.12-51.31.06-77,.07-9.26-4.37-15.55-11.61-20.5-9.51-6.5-20.44-7.38-31.37-7.45-35-.2-70-.07-104.94-.07h-5V118.76h32.43Zm25.48,72.53h34.55V51.39H804.11Z"/><path class="cls-10" d="M48.82,50.14v74.65H4.17V4H8.68c43.66,0,87.33.09,131,0,15,0,29.81,16.88,29.53,29-.7,30.46-.23,61-.23,91.72H122V119.5q0-30.5,0-61c0-4.7-2.73-8.26-7.18-8.29C93,50.05,71.19,50.14,48.82,50.14ZM163,119.77a19,19,0,0,0,.29-2.17q0-40,0-80c0-9-4.56-15.36-11.8-20.12-9-5.9-19.16-7.3-29.5-7.35-36-.17-72-.07-108-.05-1.28,0-2.57.16-3.86.24V119.65H43.05V44.09c25.69,0,51-.16,76.28.1,6.85.07,10.56,4.85,10.57,11.87q0,29.25,0,58.5v5.21Z"/><path class="cls-11" d="M681,4.12h47.76c.08,1.54.22,3,.22,4.42q0,43.5,0,87c0,14.21-15.18,29.43-29.41,29.46q-54,.09-108,.1c-10.9,0-25.13-11.56-27.55-22.76a83.32,83.32,0,0,1-2-16.71c-.2-27-.09-54-.09-81.29h54V8.92l0,65c0,5.83,2.93,9,8.71,9.06q23.49.12,47,0c6.57,0,9.33-3,9.33-9.46Zm8,6.08V16q0,30.74,0,61.47c0,7.92-3.51,11.62-11.49,11.65q-29.19.11-58.38-.1C612.24,89,608,84.59,608,77.87q0-31.25,0-62.47V10.24H569v5.09c0,24.82-.12,49.65.08,74.47a26.16,26.16,0,0,0,9,20.16c8.62,7.59,19.19,9.79,30.07,9.93,25.66.33,51.31.28,77,0,9-.09,17.81-1.84,25.65-6.77,7.16-4.51,11.52-10.17,11.36-19.44-.43-26-.15-52-.15-78V10.2Z"/><path class="cls-12" d="M314.26,83h30.42v41.72H179v-5.25c0-27.66.37-55.34-.15-83C178.51,20.26,194.32,4,211.42,4q60.5.08,121,0h12.24V47.81h-30.4ZM222.88,40.68H338.6V10.94c-41.32,0-82.29-.22-123.26.11C198.05,11.18,186,24.2,186,41.33v78.38H338.58V89.33H222.88Zm84.94,9.72H233.28V79.6h74.54Z"/><path class="cls-9" d="M355,4.13h51V75.39c0,7.06,1.63,8.62,8.86,8.62h80.79v40.72c-.95.07-2.2.27-3.46.27q-51,0-101.92,0c-14.21,0-25.11-6.23-31.87-18.7a28.46,28.46,0,0,1-3.26-12.79C354.83,63.86,355,34.23,355,4.13Zm6.94,6.06V15.7c0,25.16.09,50.32,0,75.48-.05,9.79,4.32,16.78,12.33,21.87s17.28,6.81,26.63,6.88c27.66.19,55.32.07,83,.06,1.44,0,2.88-.17,4.69-.28V92c-1.51-.14-2.64-.33-3.77-.34q-26-.25-51.95-.48c-7-.06-14,0-21-.15-8.22-.16-12.45-4.27-12.94-12.35-.11-2-.21-4-.21-6q0-29,0-58c0-2.14.48-4.53-2.95-4.52C384.54,10.22,373.43,10.19,361.9,10.19Z"/><path class="cls-9" d="M551.68,124.89H504.24V4.29h47.44ZM512.18,10.4V119.63h33V10.4Z"/><path class="cls-13" d="M778.63,43.08v75.68H746.2V9.19h5c35,0,70-.13,104.94.07,10.93.07,21.86,1,31.37,7.45,7.24,4.95,11.68,11.24,11.61,20.5-.18,25.65-.06,51.31-.06,77v4.64H866V114.3q0-30-.07-60c0-6.51-4-11.15-10.55-11.19C830.05,43,804.75,43.08,778.63,43.08Z"/><path class="cls-14" d="M804.11,115.61V51.39h34.55v64.22Z"/><path class="cls-15" d="M163,119.77H129.9v-5.21q0-29.25,0-58.5c0-7-3.72-11.8-10.57-11.87-25.29-.26-50.59-.1-76.28-.1v75.56H10.18V10.32c1.29-.08,2.58-.24,3.86-.24,36,0,72-.12,108,.05,10.34,0,20.53,1.45,29.5,7.35,7.24,4.76,11.79,11.14,11.8,20.12q0,40,0,80A19,19,0,0,1,163,119.77Z"/><path class="cls-16" d="M689,10.2h33v5.53c0,26-.28,52,.15,78,.16,9.27-4.2,14.93-11.36,19.44-7.84,4.93-16.67,6.68-25.65,6.77-25.66.27-51.31.32-77,0-10.88-.14-21.45-2.34-30.07-9.93a26.16,26.16,0,0,1-9-20.16C568.84,65,569,40.15,569,15.33V10.24h39V15.4q0,31.23,0,62.47C608,84.59,612.24,89,619.09,89q29.19.16,58.38.1c8,0,11.48-3.73,11.49-11.65q0-30.73,0-61.47Z"/><path class="cls-15" d="M222.88,40.68V89.33h115.7v30.38H186V41.33c0-17.13,12.08-30.15,29.37-30.28,41-.33,81.94-.11,123.26-.11V40.68Z"/><path class="cls-14" d="M307.82,50.4V79.6H233.28V50.4Z"/><path class="cls-17" d="M361.9,10.19c11.53,0,22.64,0,33.76,0,3.43,0,2.95,2.38,2.95,4.52q0,29,0,58c0,2,.1,4,.21,6,.49,8.08,4.72,12.19,12.94,12.35,7,.14,14,.09,21,.15q26,.22,51.95.48c1.13,0,2.26.2,3.77.34v27.72c-1.81.11-3.25.28-4.69.28-27.66,0-55.32.13-83-.06-9.35-.07-18.49-1.72-26.63-6.88S361.8,101,361.85,91.18c.14-25.16,0-50.32,0-75.48Z"/><path class="cls-18" d="M512.18,10.4h33V119.63h-33Z"/></svg>